<svg xmlns="http://www.w3.org/2000/svg" style="display: none;">
  <defs>
    <symbol id="warning" viewBox="0 0 24 24">
      <path stroke="currentColor" stroke-linecap="round" stroke-linejoin="round" stroke-width="1.25" d="m21.73 18-8-14a2 2 0 0 0-3.48 0l-8 14A2 2 0 0 0 4 21h16a2 2 0 0 0 1.73-3ZM12 9v4m0 4h.01"/>
    </symbol>
    <symbol id="info" viewBox="0 0 24 24">
      <path stroke="currentColor" stroke-linecap="round" stroke-linejoin="round" stroke-width="1.25" d="M12 22c5.523 0 10-4.477 10-10S17.523 2 12 2 2 6.477 2 12s4.477 10 10 10Zm0-6v-4m0-4h.01"/>
    </symbol>
    <symbol id="x" viewBox="0 0 24 24">
      <path stroke="currentColor" stroke-linecap="round" stroke-linejoin="round" stroke-width="1.25" d="M18 6 6 18M6 6l12 12"/>
    </symbol>
    <symbol id="chevron-left" viewBox="0 0 24 24">
      <path stroke="currentColor" stroke-linecap="round" stroke-linejoin="round" stroke-width="1.25" d="m15 18-6-6 6-6"/>
    </symbol>
    <symbol id="chevron-up" viewBox="0 0 24 24">
      <path stroke="currentColor" stroke-linecap="round" stroke-linejoin="round" stroke-width="1.25" d="m18 15-6-6-6 6"/>
    </symbol>
    <symbol id="lock-keyhole" viewBox="0 0 24 24">
      <path stroke="currentColor" stroke-linecap="round" stroke-linejoin="round" stroke-width="1.25" d="M12 17a1 1 0 1 0 0-2 1 1 0 0 0 0 2Z"/>
      <path stroke="currentColor" stroke-linecap="round" stroke-linejoin="round" stroke-width="1.25" d="M19 10H5a2 2 0 0 0-2 2v8a2 2 0 0 0 2 2h14a2 2 0 0 0 2-2v-8a2 2 0 0 0-2-2ZM7 10V7a5 5 0 1 1 10 0v3"/>
    </symbol>
    <symbol id="bookmark-minus" viewBox="0 0 24 24">
      <path stroke="currentColor" stroke-linecap="round" stroke-linejoin="round" stroke-width="1.25" d="m19 21-7-4-7 4V5a2 2 0 0 1 2-2h10a2 2 0 0 1 2 2v16Zm-4-11H9"/>
    </symbol>
    <symbol id="bookmark-plus" viewBox="0 0 24 24">
      <path stroke="currentColor" stroke-linecap="round" stroke-linejoin="round" stroke-width="1.25" d="m19 21-7-4-7 4V5a2 2 0 0 1 2-2h10a2 2 0 0 1 2 2v16ZM12 7v6m3-3H9"/>
    </symbol>
    <symbol id="more-vertical" viewBox="0 0 24 24">
      <path stroke="currentColor" stroke-linecap="round" stroke-linejoin="round" stroke-width="1.25" d="M12 13a1 1 0 1 0 0-2 1 1 0 0 0 0 2Zm0-7a1 1 0 1 0 0-2 1 1 0 0 0 0 2Zm0 14a1 1 0 1 0 0-2 1 1 0 0 0 0 2Z"/>
    </symbol>
    <symbol id="alert" viewBox="0 0 24 24">
      <path stroke="currentColor" stroke-linecap="round" stroke-linejoin="round" stroke-width="1.25" d="M12 22c5.523 0 10-4.477 10-10S17.523 2 12 2 2 6.477 2 12s4.477 10 10 10Zm0-14v4m0 4h.01"/>
    </symbol>
    <symbol id="bookmark"  viewBox="0 0 24 24">
      <path stroke="currentColor" stroke-linecap="round" stroke-linejoin="round" stroke-width="1.25" d="m19 21-7-4-7 4V5a2 2 0 0 1 2-2h10a2 2 0 0 1 2 2v16Z"/>
    </symbol>
    <symbol id="circle-user" viewBox="0 0 24 24">
      <path stroke="currentColor" stroke-linecap="round" stroke-linejoin="round" stroke-width="1.25" d="M12 22c5.523 0 10-4.477 10-10S17.523 2 12 2 2 6.477 2 12s4.477 10 10 10Z"/>
      <path stroke="currentColor" stroke-linecap="round" stroke-linejoin="round" stroke-width="1.25" d="M12 13a3 3 0 1 0 0-6 3 3 0 0 0 0 6Zm-5 7.662V19a2 2 0 0 1 2-2h6a2 2 0 0 1 2 2v1.662"/>
    </symbol>
    <symbol id="unlock-keyhole" viewBox="0 0 24 24">
      <path stroke="currentColor" stroke-linecap="round" stroke-linejoin="round" stroke-width="1.25" d="M12 17a1 1 0 1 0 0-2 1 1 0 0 0 0 2Z"/>
      <path stroke="currentColor" stroke-linecap="round" stroke-linejoin="round" stroke-width="1.25" d="M19 10H5a2 2 0 0 0-2 2v8a2 2 0 0 0 2 2h14a2 2 0 0 0 2-2v-8a2 2 0 0 0-2-2ZM7 10V7a5 5 0 0 1 9.33-2.5"/>
    </symbol>
    <symbol id="book-marked" viewBox="0 0 24 24">
      <path stroke="currentColor" stroke-linecap="round" stroke-linejoin="round" stroke-width="1.25" d="M4 19.5v-15A2.5 2.5 0 0 1 6.5 2H20v20H6.5A2.5 2.5 0 0 1 4 19.5Zm0 0A2.5 2.5 0 0 1 6.5 17H20"/>
      <path stroke="currentColor" stroke-linecap="round" stroke-linejoin="round" stroke-width="1.25" d="M10 2v8l3-3 3 3V2"/>
    </symbol>
    <symbol id="menu" viewBox="0 0 24 24">
      <path stroke="currentColor" stroke-linecap="round" stroke-linejoin="round" stroke-width="1.25" d="M4 12h16M4 6h16M4 18h16"/>
    </symbol>
    <symbol id="open-book-text" viewBox="0 0 24 24">
      <path stroke="currentColor" stroke-linecap="round" stroke-linejoin="round" stroke-width="1.25" d="M2 3h6a4 4 0 0 1 4 4v14a3 3 0 0 0-3-3H2V3Zm20 0h-6a4 4 0 0 0-4 4v14a3 3 0 0 1 3-3h7V3ZM6 8h2m-2 4h2m8-4h2m-2 4h2"/>
    </symbol>
    <symbol id="chevron-right" viewBox="0 0 24 24">
      <path stroke="currentColor" stroke-linecap="round" stroke-linejoin="round" stroke-width="1.25" d="m9 18 6-6-6-6"/>
    </symbol>
    <symbol id="book" viewBox="0 0 24 24">
      <path stroke="currentColor" stroke-linecap="round" stroke-linejoin="round" stroke-width="1.25" d="M4 19.5v-15A2.5 2.5 0 0 1 6.5 2H20v20H6.5A2.5 2.5 0 0 1 4 19.5Zm0 0A2.5 2.5 0 0 1 6.5 17H20"/>
    </symbol>
    <symbol id="chevron-down" viewBox="0 0 24 24">
      <path stroke="currentColor" stroke-linecap="round" stroke-linejoin="round" stroke-width="1.25" d="m6 9 6 6 6-6"/>
    </symbol>
    <symbol id="settings" viewBox="0 0 24 24">
      <path stroke="currentColor" stroke-linecap="round" stroke-linejoin="round" stroke-width="1.25" d="M12.22 2h-.44a2 2 0 0 0-2 2v.18a2 2 0 0 1-1 1.73l-.43.25a2 2 0 0 1-2 0l-.15-.08a2 2 0 0 0-2.73.73l-.22.38a2 2 0 0 0 .73 2.73l.15.1a2 2 0 0 1 1 1.72v.51a2 2 0 0 1-1 1.74l-.15.09a2 2 0 0 0-.73 2.73l.22.38a2 2 0 0 0 2.73.73l.15-.08a2 2 0 0 1 2 0l.43.25a2 2 0 0 1 1 1.73V20a2 2 0 0 0 2 2h.44a2 2 0 0 0 2-2v-.18a2 2 0 0 1 1-1.73l.43-.25a2 2 0 0 1 2 0l.15.08a2 2 0 0 0 2.73-.73l.22-.39a2 2 0 0 0-.73-2.73l-.15-.08a2 2 0 0 1-1-1.74v-.5a2 2 0 0 1 1-1.74l.15-.09a2 2 0 0 0 .73-2.73l-.22-.38a2 2 0 0 0-2.73-.73l-.15.08a2 2 0 0 1-2 0l-.43-.25a2 2 0 0 1-1-1.73V4a2 2 0 0 0-2-2Z"/>
      <path stroke="currentColor" stroke-linecap="round" stroke-linejoin="round" stroke-width="1.25" d="M12 15a3 3 0 1 0 0-6 3 3 0 0 0 0 6Z"/>
    </symbol>
    <symbol id="pencil_line" viewBox="0 0 24 24">
      <path stroke="currentColor" stroke-linecap="round" stroke-linejoin="round" stroke-width="1.25" d="M12 20h9M16.5 3.5a2.121 2.121 0 1 1 3 3L7 19l-4 1 1-4L16.5 3.5ZM15 5l3 3"/>
    </symbol>
    <symbol id="pencil" viewBox="0 0 24 24">
      <path stroke="currentColor" stroke-linecap="round" stroke-linejoin="round" stroke-width="1.25" d="M17 3a2.847 2.847 0 0 1 2.064-1.007 2.868 2.868 0 0 1 2.14.834 2.827 2.827 0 0 1 .825 2.131A2.814 2.814 0 0 1 21 7L7.5 20.5 2 22l1.5-5.5L17 3Zm-2 2 4 4"/>
    </symbol>
    <symbol id="trash" viewBox="0 0 24 24">
      <path stroke="currentColor" stroke-linecap="round" stroke-linejoin="round" stroke-width="1.25" d="M3 6h18m-2 0v14c0 1-1 2-2 2H7c-1 0-2-1-2-2V6m3 0V4c0-1 1-2 2-2h4c1 0 2 1 2 2v2m-6 5v6m4-6v6"/>
    </symbol>
  </defs>
</svg>
