<?xml version="1.0" encoding="UTF-8"?>
<svg id="Layer_1" data-name="Layer 1" xmlns="http://www.w3.org/2000/svg" viewBox="0 0 270 270">
  <defs>
    <style>
      .cls-1 {
        fill: #fff;
      }

      .cls-2 {
        fill: #020202;
      }
    </style>
  </defs>
  <path class="cls-2" d="m1.73,155.72c2.99-3.07,7.1-4.09,10.94-5.55,2.12-.8,4.31-1.42,6.47-2.09.94-.29,1.43-.79,1.57-1.72.07-.51.2-1.02.21-1.53.03-3.12.21-6.26-.02-9.36-.27-3.7-1.09-7.29-3.04-10.56-1.5-2.52-3.68-4.01-6.32-5.07-1.51-.6-2.98-1.38-4.31-2.31-1.53-1.07-1.74-2.79-.9-4.38.4-.76.97-1.08,1.79-1.32,3.31-.95,6.58-2.03,9.88-2.97.92-.26.62-.5.2-.92-4-4.1-6-9.15-7.17-14.66-.86-4.06-1.42-8.17-1.39-12.29.03-4.83.61-9.65,2.56-14.14,2.47-5.69,6.57-9.75,12.66-11.37,2.72-.73,5.6-.88,8.4-1.29,3.15-.47,6.29-.95,9.44-1.39,2.98-.42,5.97-.78,8.95-1.2,3.32-.47,6.63-.99,9.95-1.45,2.98-.41,5.98-.75,8.96-1.16,3.23-.45,6.46-.98,9.69-1.43,3.07-.42,6.15-.76,9.22-1.18,3.15-.43,6.29-.95,9.44-1.39,3.07-.43,6.15-.78,9.22-1.2,3.15-.43,6.29-.93,9.44-1.37,2.98-.42,5.97-.8,8.95-1.22,3.32-.47,6.63-.99,9.95-1.45,2.98-.41,5.98-.75,8.96-1.17,3.23-.45,6.46-.97,9.69-1.41,3.07-.42,6.15-.79,9.22-1.19,1.79-.23,3.62-.31,5.36-.75,1.6-.4,3.04-.22,4.56.24,12.27,3.7,24.56,7.36,36.83,11.07,8.32,2.51,16.61,5.11,24.93,7.62,8.32,2.51,16.66,4.94,24.98,7.46.87.26,1.85.68,2.4,1.33,1.25,1.49.89,3.6-.81,4.76-1.49,1.01-3.08,2.01-4.77,2.56-3.53,1.16-5.5,3.72-6.82,6.93-1.39,3.38-2.09,6.92-2.05,10.59.03,2.34,0,4.68.08,7.02.09,2.78.3,2.86,2.9,3.71,3.68,1.2,7.36,2.45,10.95,3.88,1.58.63,3.07,1.61,4.39,2.69,1.53,1.25,1.3,2.31-.61,2.99-1.69.6-3.48.94-5.23,1.37-2.17.54-4.34,1.06-6.52,1.57-.44.1-.6.2-.29.63.31.42.54.89.86,1.3,2.92,3.85,4.03,8.33,4.45,13.03.19,2.06.5,4.14.39,6.18-.36,6.82-1.34,13.55-4.34,19.79-1.48,3.08-3.57,5.72-6.31,7.8-.48.36-.61.5.04.71.9.3,1.79.6,2.69.89.57.19,1.18.28,1.72.54,2.08.99,2.6,3.16,1.14,4.89-.54.64-1.28,1.17-2.01,1.6-.96.57-1.97,1.12-3.03,1.47-5.03,1.66-7.29,5.64-8.41,10.34-.8,3.33-1.34,6.77-1.12,10.25.13,2.15.31,4.3.53,6.44.04.34.33.73.65.86,1.14.43,2.33.75,3.5,1.1,4.22,1.26,8.36,2.74,12.25,4.83,1.18.63,2.6,1.38,2.48,2.73-.13,1.45-1.78,1.62-3.05,1.93-10.27,2.52-20.52,5.08-30.79,7.59-11.44,2.79-22.89,5.55-34.33,8.32-10.77,2.61-21.55,5.23-32.32,7.84-11.44,2.77-22.88,5.56-34.33,8.31-3.34.81-6.74,1.42-10.04,2.36-1.44.41-2.66.31-4.01-.15-5.46-1.86-10.94-3.69-16.42-5.47-14.33-4.67-28.66-9.31-42.99-13.96-6.96-2.26-13.92-4.53-20.88-6.79-4.5-1.46-8.97-3.06-13.52-4.34-4.13-1.17-7.1-3.64-9.55-7.05-2.73-3.81-4.11-8.12-5.08-12.6-.36-1.64-.66-3.3-.99-4.95v-13.01c.16-.37.39-.72.46-1.1.79-4.87,2.59-9.28,6-12.92.73-.79.63-.86-.36-1.17-1.98-.63-4.14-.69-5.94-1.87l-.19-1.63Zm249.85-23.92c0-.61,0-1.21,0-1.82.02-2.96-.45-5.83-1.58-8.57-.6-1.45-1.37-2.76-2.65-3.74-2.16-1.66-4.53-1.36-6.86-.61-12.29,3.95-24.56,7.95-36.84,11.94-7.45,2.42-14.9,4.84-22.34,7.27-10.56,3.44-21.11,6.89-31.66,10.34-2.03.67-2.08.69-2.02,2.88.14,5.1.32,10.19.5,15.29.15,4.4.33,8.81.49,13.21.02.55,0,1.06.84.7.47-.2,1.02-.18,1.51-.32,11.76-3.28,23.51-6.56,35.26-9.86,12.41-3.49,24.82-7,37.23-10.49,5.96-1.68,11.88-3.48,17.89-4.95,3.81-.93,6.17-3.19,7.65-6.63,2-4.68,2.61-9.61,2.56-14.65ZM18.41,81.7c.21,2.05.52,4.11.62,6.17.15,3.15.94,6.14,2.23,8.96,1.33,2.89,3.3,5.19,6.61,6.07,5.73,1.53,11.42,3.21,17.13,4.8,12.26,3.4,24.53,6.77,36.78,10.19,12.83,3.59,25.65,7.22,38.48,10.84,1.21.34,1.23.34,1.27-.97.19-6.22.37-12.44.55-18.67.02-.69.01-1.39.05-2.08.13-2.76.26-5.51.42-8.27.06-1.02-.31-1.54-1.36-1.83-2.48-.7-4.93-1.54-7.38-2.33-6.96-2.26-13.91-4.53-20.87-6.8-16.45-5.36-32.9-10.72-49.34-16.08-4.66-1.52-9.32-3.09-13.99-4.58-1.11-.36-2.21-.75-3.48-.58-3.22.44-5,2.33-6.05,5.25-1.16,3.21-1.57,6.51-1.67,9.92Zm95.79,123.4s.06,0,.09,0c0-2.34-.05-4.68.02-7.02.03-1.01-.33-1.47-1.21-1.71-.69-.19-1.4-.36-2.08-.58-8.13-2.65-16.24-5.32-24.37-7.97-16.45-5.36-32.89-10.72-49.34-16.09-5.56-1.82-11.12-3.65-16.69-5.46-.64-.21-1.35-.46-2-.4-2.89.25-5.04,1.68-6.24,4.36-.92,2.05-1.54,4.2-1.66,6.47-.07,1.37-.29,2.74-.38,4.11-.04.68.04,1.37.1,2.06.07.77.27,1.53.26,2.3-.02,4.12.92,8.05,2.72,11.71,1.31,2.68,3.15,4.97,6.44,5.46.76.11,1.5.38,2.24.59,9.35,2.65,18.69,5.32,28.04,7.94,10.43,2.92,20.87,5.8,31.3,8.71,10.35,2.89,20.7,5.78,31.03,8.74,1.11.32,1.14-.08,1.16-.91.17-7.44.36-14.87.55-22.31Zm13.17-84s-.04,0-.06,0c0,.52,0,1.04,0,1.56,0,1.04-.02,2.08-.03,3.12q-.03,2.96,2.82,2.24c12.17-3.07,24.33-6.16,36.51-9.2,15.93-3.98,31.87-7.91,47.81-11.86,7.35-1.82,14.7-3.61,22.05-5.41,2.09-.51,4.17-1.03,6.26-1.56,1.37-.35,1.32-.44,1.21-1.89-.26-3.27-.46-6.55-.57-9.82-.04-1.19.33-2.39.35-3.59.06-3.59,1.07-6.96,2.26-10.3.13-.36.12-.76.18-1.14-.42-.03-.86-.16-1.25-.08-2.61.53-5.21,1.12-7.82,1.67-6.31,1.32-12.61,2.64-18.92,3.94-6.4,1.32-12.8,2.62-19.2,3.93-5.47,1.12-10.94,2.26-16.41,3.37-5.56,1.13-11.12,2.23-16.68,3.36-5.56,1.13-11.11,2.28-16.66,3.44-6.48,1.35-12.95,2.71-19.42,4.09-1.82.39-1.84.43-1.88,2.07-.19,7.35-.36,14.71-.53,22.06Zm15.52,50.41s.04,0,.06,0c-.2-3.71-.46-7.42-.58-11.13-.12-3.73-.11-7.46-.11-11.18,0-1.15-.39-1.61-1.6-1.85-5.82-1.12-11.62-2.37-17.42-3.58-6.31-1.31-12.62-2.63-18.93-3.93-5.39-1.11-10.77-2.22-16.16-3.33-6.4-1.31-12.79-2.63-19.19-3.94-5.47-1.12-10.95-2.23-16.42-3.36-5.72-1.18-11.44-2.36-17.16-3.54-3.45-.71-6.9-1.45-10.35-2.14-1.05-.21-1.42.16-1.02,1,2.23,4.63,2.52,9.65,2.73,14.63.14,3.25-.39,6.53-.71,9.78-.06.65.03.98.62,1.16.41.12.82.25,1.24.35,3.93.95,7.86,1.88,11.78,2.86,14.26,3.55,28.52,7.12,42.79,10.68,14.26,3.56,28.52,7.14,42.79,10.68,5.51,1.37,11.04,2.61,16.54,4.01,1.1.28,1.13-.07,1.11-.91-.03-2.08-.01-4.16-.01-6.24Zm-23.65,53.59c-.08,0-.16,0-.24,0,0,.95.01,1.91,0,2.86-.01.76.13,1.05,1.06.81,6.91-1.77,13.84-3.47,20.77-5.2,15.6-3.9,31.19-7.82,46.79-11.69,15.52-3.86,31.05-7.67,46.57-11.5,1.79-.44,2.09-.7,1.73-2.49-.69-3.35-.38-6.72-.47-10.09-.08-2.87.3-5.68,1.04-8.44.45-1.66,1.02-3.28,1.59-4.9.36-1.04.32-1.12-.82-1.01-.17.02-.35.01-.52.05-5.3,1.11-10.6,2.23-15.9,3.33-5.47,1.14-10.94,2.27-16.41,3.38-4.72.96-9.44,1.89-14.15,2.85-6.4,1.3-12.8,2.59-19.19,3.96-3.69.79-7.39,1.63-11.03,2.63-3.32.91-6.58,2.04-9.84,3.13-1.1.37-2.08.45-3.26.18-1.32-.31-2.68-.37-4.02-.15-3.16.53-6.28,1.31-9.43,1.97-4.12.87-8.24,1.76-12.37,2.55-.88.17-1.11.51-1.15,1.33-.1,2.67-.35,5.34-.42,8.01-.15,6.14-.23,12.28-.34,18.42Z"/>
  <path class="cls-1" d="m251.59,131.8c.05,5.04-.56,9.97-2.56,14.65-1.48,3.45-3.84,5.7-7.65,6.63-6.01,1.47-11.93,3.28-17.89,4.95-12.41,3.49-24.82,7.01-37.23,10.49-11.75,3.3-23.51,6.58-35.26,9.86-.5.14-1.05.12-1.51.32-.84.36-.82-.15-.84-.7-.16-4.4-.34-8.81-.49-13.21-.18-5.1-.37-10.19-.5-15.29-.06-2.19-.02-2.22,2.02-2.88,10.55-3.46,21.11-6.9,31.66-10.34,7.45-2.43,14.89-4.85,22.34-7.27,12.28-3.99,24.55-7.98,36.84-11.94,2.33-.75,4.7-1.06,6.86.61,1.27.98,2.05,2.29,2.65,3.74,1.13,2.74,1.6,5.61,1.58,8.57,0,.61,0,1.21,0,1.82Z"/>
  <path class="cls-1" d="m18.41,81.7c.1-3.4.51-6.7,1.67-9.92,1.05-2.92,2.83-4.82,6.05-5.25,1.28-.17,2.37.23,3.48.58,4.67,1.49,9.32,3.06,13.99,4.58,16.45,5.36,32.9,10.72,49.34,16.08,6.95,2.27,13.91,4.54,20.87,6.8,2.45.8,4.9,1.64,7.38,2.33,1.05.29,1.42.81,1.36,1.83-.16,2.76-.29,5.51-.42,8.27-.03.69-.03,1.39-.05,2.08-.18,6.22-.36,12.45-.55,18.67-.04,1.31-.06,1.31-1.27.97-12.82-3.61-25.64-7.25-38.48-10.84-12.25-3.42-24.52-6.78-36.78-10.19-5.72-1.59-11.4-3.27-17.13-4.8-3.32-.88-5.28-3.18-6.61-6.07-1.3-2.82-2.09-5.81-2.23-8.96-.1-2.06-.4-4.11-.62-6.17Z"/>
  <path class="cls-1" d="m114.2,205.46c-.18,7.44-.37,14.87-.55,22.31-.02.83-.05,1.23-1.16.91-10.33-2.96-20.68-5.85-31.03-8.74-10.43-2.91-20.87-5.79-31.3-8.71-9.35-2.62-18.69-5.29-28.04-7.94-.74-.21-1.48-.48-2.24-.59-3.29-.49-5.13-2.78-6.44-5.46-1.8-3.66-2.74-7.59-2.72-11.71,0-.77-.19-1.53-.26-2.3-.06-.68-.15-1.38-.1-2.06.09-1.37.3-2.74.38-4.11.12-2.27.74-4.42,1.66-6.47,1.2-2.68,3.36-4.1,6.24-4.36.65-.06,1.35.19,2,.4,5.57,1.81,11.13,3.64,16.69,5.46,16.45,5.36,32.89,10.72,49.34,16.09,7.53,2.46,15.05,4.93,22.57,7.38,1.23.4,2.45.83,3.7,1.12,1.01.23,1.42.68,1.38,1.76-.08,2.34-.02,4.68-.02,7.02-.03,0-.06,0-.09,0Z"/>
  <path class="cls-1" d="m127.38,121.54c.18-7.35.35-14.71.53-22.06.04-1.64.06-1.68,1.88-2.07,6.47-1.38,12.95-2.74,19.42-4.09,5.55-1.16,11.11-2.3,16.66-3.44,5.56-1.13,11.12-2.23,16.68-3.36,5.47-1.11,10.94-2.25,16.41-3.37,6.4-1.31,12.8-2.61,19.2-3.93,6.31-1.3,12.62-2.62,18.92-3.94,2.61-.55,5.21-1.14,7.82-1.67.39-.08.83.05,1.25.08-.06.38-.05.79-.18,1.14-1.19,3.34-2.2,6.7-2.26,10.3-.02,1.2-.39,2.4-.35,3.59.11,3.28.31,6.55.57,9.82.11,1.45.17,1.53-1.21,1.89-2.08.53-4.17,1.05-6.26,1.56-7.35,1.8-14.7,3.59-22.05,5.41-15.94,3.94-31.88,7.88-47.81,11.86-12.18,3.04-24.34,6.13-36.51,9.2q-2.85.72-2.82-2.24c.01-1.04.02-2.08.03-3.12,0-.52,0-1.04,0-1.56.02,0,.04,0,.06,0Z"/>
  <path class="cls-1" d="m142.9,171.51c0,2.08-.02,4.16.01,6.24.01.85-.01,1.19-1.11.91-5.5-1.4-11.03-2.64-16.54-4.01-14.27-3.54-28.52-7.12-42.79-10.68-14.26-3.56-28.52-7.13-42.79-10.68-3.92-.98-7.85-1.9-11.78-2.86-.42-.1-.83-.23-1.24-.35-.6-.18-.69-.51-.62-1.16.32-3.26.85-6.54.71-9.78-.21-4.97-.5-10-2.73-14.63-.4-.83-.02-1.21,1.02-1,3.45.69,6.9,1.43,10.35,2.14,5.72,1.18,11.44,2.37,17.16,3.54,5.47,1.12,10.95,2.24,16.42,3.36,6.4,1.31,12.79,2.62,19.19,3.94,5.39,1.11,10.78,2.21,16.16,3.33,6.31,1.31,12.62,2.62,18.93,3.93,5.8,1.21,11.6,2.46,17.42,3.58,1.21.23,1.6.7,1.6,1.85,0,3.73,0,7.46.11,11.18.12,3.71.38,7.42.58,11.13-.02,0-.04,0-.06,0Z"/>
  <path class="cls-1" d="m119.25,225.08c.11-6.14.19-12.28.34-18.42.07-2.67.31-5.34.42-8.01.03-.83.26-1.17,1.15-1.33,4.13-.79,8.25-1.68,12.37-2.55,3.11-.66,6.2-1.43,9.33-1.96,1.33-.23,2.79-.18,4.11.13,1.17.27,2.16.19,3.26-.18,3.26-1.1,6.53-2.22,9.84-3.13,3.64-1,7.33-1.84,11.03-2.63,6.39-1.37,12.79-2.65,19.19-3.96,4.72-.96,9.44-1.89,14.15-2.85,5.47-1.12,10.94-2.24,16.41-3.38,5.3-1.1,10.6-2.22,15.9-3.33.17-.04.35-.03.52-.05,1.14-.11,1.18-.03.82,1.01-.56,1.62-1.14,3.25-1.59,4.9-.74,2.76-1.12,5.57-1.04,8.44.09,3.36-.22,6.74.47,10.09.37,1.78.06,2.04-1.73,2.49-15.52,3.84-31.05,7.65-46.57,11.5-15.6,3.88-31.19,7.8-46.79,11.69-6.92,1.73-13.86,3.42-20.77,5.2-.92.24-1.07-.05-1.06-.81.01-.95,0-1.91,0-2.86.08,0,.16,0,.24,0Z"/>
</svg>